# xmcd CD database file
#
# Track frame offsets:
#	150
#	15207
#	27455
#	51040
#	69837
#	90932
#	103020
#	115265
#	143415
#	160682
#	176355
#	193012
#
# Disc length: 2830 seconds
#
# Revision: 2
# Processed by: cddbd v1.5.2PL0 Copyright (c) Steve Scherf et al.
# Submitted via: CDex 1.70beta2
#
DISCID=850b0c0c
DTITLE=Lou Rawls - LIVE
DYEAR=1900
DGENRE=
TTITLE0=lou rawls - stormy monday
TTITLE1=lou rawls - southside blues
TTITLE2=lou rawls - tobacco road
TTITLE3=lou rawls - st. james infirmary
TTITLE4=lou rawls - the shadow of your smile
TTITLE5=lou rawls - i'd rather drink muddy water
TTITLE6=lou rawls - goin' to chicago blues
TTITLE7=lou rawls - in the evening when the sun goes down
TTITLE8=lou rawls - the girl from ipenema
TTITLE9=lou rawls - i got it bad and that ain't good
TTITLE10=lou rawls - street corner hustler's blues
TTITLE11=lou rawls - world of trouble
EXTD=
EXTT0=
EXTT1=
EXTT2=
EXTT3=
EXTT4=
EXTT5=
EXTT6=
EXTT7=
EXTT8=
EXTT9=
EXTT10=
EXTT11=
PLAYORDER=
